<mxfile host="app.diagrams.net" agent="Mozilla/5.0 (Windows NT 10.0; Win64; x64) AppleWebKit/537.36 (KHTML, like Gecko) Chrome/137.0.0.0 Safari/537.36 OPR/121.0.0.0" version="28.2.3">
  <diagram name="P치gina-1" id="3I6oQf0BSBRgLEMh9V0E">
    <mxGraphModel dx="3083" dy="781" grid="1" gridSize="10" guides="1" tooltips="1" connect="1" arrows="1" fold="1" page="1" pageScale="1" pageWidth="827" pageHeight="1169" math="0" shadow="0">
      <root>
        <mxCell id="0" />
        <mxCell id="1" parent="0" />
        <mxCell id="xVn4Jh1f6LnYu56NWIbm-22" value="" style="group" vertex="1" connectable="0" parent="1">
          <mxGeometry x="20" y="20" width="670" height="330" as="geometry" />
        </mxCell>
        <mxCell id="xVn4Jh1f6LnYu56NWIbm-1" value="SGBD" style="html=1;dropTarget=0;whiteSpace=wrap;" vertex="1" parent="xVn4Jh1f6LnYu56NWIbm-22">
          <mxGeometry width="670" height="330" as="geometry" />
        </mxCell>
        <mxCell id="xVn4Jh1f6LnYu56NWIbm-2" value="" style="shape=module;jettyWidth=8;jettyHeight=4;" vertex="1" parent="xVn4Jh1f6LnYu56NWIbm-1">
          <mxGeometry x="1" width="20" height="20" relative="1" as="geometry">
            <mxPoint x="-27" y="7" as="offset" />
          </mxGeometry>
        </mxCell>
        <mxCell id="xVn4Jh1f6LnYu56NWIbm-3" value="Gerenciamento de dados de Pedidos" style="html=1;dropTarget=0;whiteSpace=wrap;" vertex="1" parent="xVn4Jh1f6LnYu56NWIbm-22">
          <mxGeometry x="245" y="30" width="180" height="90" as="geometry" />
        </mxCell>
        <mxCell id="xVn4Jh1f6LnYu56NWIbm-4" value="" style="shape=module;jettyWidth=8;jettyHeight=4;" vertex="1" parent="xVn4Jh1f6LnYu56NWIbm-3">
          <mxGeometry x="1" width="20" height="20" relative="1" as="geometry">
            <mxPoint x="-27" y="7" as="offset" />
          </mxGeometry>
        </mxCell>
        <mxCell id="xVn4Jh1f6LnYu56NWIbm-7" value="Gerenciamento de dados de Usu치rios&amp;nbsp;" style="html=1;dropTarget=0;whiteSpace=wrap;" vertex="1" parent="xVn4Jh1f6LnYu56NWIbm-22">
          <mxGeometry x="50" y="180" width="180" height="90" as="geometry" />
        </mxCell>
        <mxCell id="xVn4Jh1f6LnYu56NWIbm-8" value="" style="shape=module;jettyWidth=8;jettyHeight=4;" vertex="1" parent="xVn4Jh1f6LnYu56NWIbm-7">
          <mxGeometry x="1" width="20" height="20" relative="1" as="geometry">
            <mxPoint x="-27" y="7" as="offset" />
          </mxGeometry>
        </mxCell>
        <mxCell id="xVn4Jh1f6LnYu56NWIbm-9" value="Gerenciamento de dados de Autom칩veis" style="html=1;dropTarget=0;whiteSpace=wrap;" vertex="1" parent="xVn4Jh1f6LnYu56NWIbm-22">
          <mxGeometry x="460" y="180" width="180" height="90" as="geometry" />
        </mxCell>
        <mxCell id="xVn4Jh1f6LnYu56NWIbm-10" value="" style="shape=module;jettyWidth=8;jettyHeight=4;" vertex="1" parent="xVn4Jh1f6LnYu56NWIbm-9">
          <mxGeometry x="1" width="20" height="20" relative="1" as="geometry">
            <mxPoint x="-27" y="7" as="offset" />
          </mxGeometry>
        </mxCell>
        <mxCell id="xVn4Jh1f6LnYu56NWIbm-31" value="" style="group" vertex="1" connectable="0" parent="1">
          <mxGeometry x="-520" y="560" width="630" height="330" as="geometry" />
        </mxCell>
        <mxCell id="xVn4Jh1f6LnYu56NWIbm-11" value="Gerenciamento de Pedidos" style="html=1;dropTarget=0;whiteSpace=wrap;" vertex="1" parent="xVn4Jh1f6LnYu56NWIbm-31">
          <mxGeometry width="630" height="330" as="geometry" />
        </mxCell>
        <mxCell id="xVn4Jh1f6LnYu56NWIbm-12" value="" style="shape=module;jettyWidth=8;jettyHeight=4;" vertex="1" parent="xVn4Jh1f6LnYu56NWIbm-11">
          <mxGeometry x="1" width="20" height="20" relative="1" as="geometry">
            <mxPoint x="-27" y="7" as="offset" />
          </mxGeometry>
        </mxCell>
        <mxCell id="xVn4Jh1f6LnYu56NWIbm-19" value="Contrato" style="html=1;dropTarget=0;whiteSpace=wrap;" vertex="1" parent="xVn4Jh1f6LnYu56NWIbm-31">
          <mxGeometry x="20" y="220" width="226.8" height="90" as="geometry" />
        </mxCell>
        <mxCell id="xVn4Jh1f6LnYu56NWIbm-20" value="" style="shape=module;jettyWidth=8;jettyHeight=4;" vertex="1" parent="xVn4Jh1f6LnYu56NWIbm-19">
          <mxGeometry x="1" width="20" height="20" relative="1" as="geometry">
            <mxPoint x="-27" y="7" as="offset" />
          </mxGeometry>
        </mxCell>
        <mxCell id="xVn4Jh1f6LnYu56NWIbm-29" value="Automovel" style="html=1;dropTarget=0;whiteSpace=wrap;" vertex="1" parent="xVn4Jh1f6LnYu56NWIbm-31">
          <mxGeometry x="390" y="220" width="226.8" height="90" as="geometry" />
        </mxCell>
        <mxCell id="xVn4Jh1f6LnYu56NWIbm-30" value="" style="shape=module;jettyWidth=8;jettyHeight=4;" vertex="1" parent="xVn4Jh1f6LnYu56NWIbm-29">
          <mxGeometry x="1" width="20" height="20" relative="1" as="geometry">
            <mxPoint x="-27" y="7" as="offset" />
          </mxGeometry>
        </mxCell>
        <mxCell id="xVn4Jh1f6LnYu56NWIbm-39" value="Pedidos" style="html=1;dropTarget=0;whiteSpace=wrap;" vertex="1" parent="xVn4Jh1f6LnYu56NWIbm-31">
          <mxGeometry x="230" y="40" width="180" height="90" as="geometry" />
        </mxCell>
        <mxCell id="xVn4Jh1f6LnYu56NWIbm-40" value="" style="shape=module;jettyWidth=8;jettyHeight=4;" vertex="1" parent="xVn4Jh1f6LnYu56NWIbm-39">
          <mxGeometry x="1" width="20" height="20" relative="1" as="geometry">
            <mxPoint x="-27" y="7" as="offset" />
          </mxGeometry>
        </mxCell>
        <mxCell id="xVn4Jh1f6LnYu56NWIbm-44" value="" style="group" vertex="1" connectable="0" parent="1">
          <mxGeometry x="-930" y="60" width="750" height="220" as="geometry" />
        </mxCell>
        <mxCell id="xVn4Jh1f6LnYu56NWIbm-32" value="" style="group" vertex="1" connectable="0" parent="xVn4Jh1f6LnYu56NWIbm-44">
          <mxGeometry x="10" y="88" width="740" height="132" as="geometry" />
        </mxCell>
        <mxCell id="xVn4Jh1f6LnYu56NWIbm-23" value="Usu치rios" style="html=1;dropTarget=0;whiteSpace=wrap;" vertex="1" parent="xVn4Jh1f6LnYu56NWIbm-32">
          <mxGeometry width="740" height="132" as="geometry" />
        </mxCell>
        <mxCell id="xVn4Jh1f6LnYu56NWIbm-24" value="" style="shape=module;jettyWidth=8;jettyHeight=4;" vertex="1" parent="xVn4Jh1f6LnYu56NWIbm-23">
          <mxGeometry x="1" width="20" height="20" relative="1" as="geometry">
            <mxPoint x="-27" y="7" as="offset" />
          </mxGeometry>
        </mxCell>
        <mxCell id="xVn4Jh1f6LnYu56NWIbm-25" value="Agente" style="html=1;dropTarget=0;whiteSpace=wrap;" vertex="1" parent="xVn4Jh1f6LnYu56NWIbm-32">
          <mxGeometry x="90" y="39.599999999999994" width="180" height="59.4" as="geometry" />
        </mxCell>
        <mxCell id="xVn4Jh1f6LnYu56NWIbm-26" value="" style="shape=module;jettyWidth=8;jettyHeight=4;" vertex="1" parent="xVn4Jh1f6LnYu56NWIbm-25">
          <mxGeometry x="1" width="20" height="20" relative="1" as="geometry">
            <mxPoint x="-27" y="7" as="offset" />
          </mxGeometry>
        </mxCell>
        <mxCell id="xVn4Jh1f6LnYu56NWIbm-27" value="Cliente" style="html=1;dropTarget=0;whiteSpace=wrap;" vertex="1" parent="xVn4Jh1f6LnYu56NWIbm-32">
          <mxGeometry x="470" y="39.599999999999994" width="180" height="59.4" as="geometry" />
        </mxCell>
        <mxCell id="xVn4Jh1f6LnYu56NWIbm-28" value="" style="shape=module;jettyWidth=8;jettyHeight=4;" vertex="1" parent="xVn4Jh1f6LnYu56NWIbm-27">
          <mxGeometry x="1" width="20" height="20" relative="1" as="geometry">
            <mxPoint x="-27" y="7" as="offset" />
          </mxGeometry>
        </mxCell>
        <mxCell id="xVn4Jh1f6LnYu56NWIbm-35" value="" style="ellipse;whiteSpace=wrap;html=1;align=center;aspect=fixed;fillColor=none;strokeColor=none;resizable=0;perimeter=centerPerimeter;rotatable=0;allowArrows=0;points=[];outlineConnect=1;" vertex="1" parent="xVn4Jh1f6LnYu56NWIbm-44">
          <mxGeometry x="135" width="10" height="10" as="geometry" />
        </mxCell>
        <mxCell id="xVn4Jh1f6LnYu56NWIbm-43" value="" style="ellipse;whiteSpace=wrap;html=1;align=center;aspect=fixed;fillColor=none;strokeColor=none;resizable=0;perimeter=centerPerimeter;rotatable=0;allowArrows=0;points=[];outlineConnect=1;" vertex="1" parent="xVn4Jh1f6LnYu56NWIbm-44">
          <mxGeometry y="8.799999999999999" width="10" height="10" as="geometry" />
        </mxCell>
        <mxCell id="xVn4Jh1f6LnYu56NWIbm-50" value="" style="endArrow=open;endFill=1;endSize=12;html=1;rounded=0;exitX=0;exitY=1;exitDx=0;exitDy=0;" edge="1" parent="1" source="xVn4Jh1f6LnYu56NWIbm-29">
          <mxGeometry width="160" relative="1" as="geometry">
            <mxPoint x="-430" y="920" as="sourcePoint" />
            <mxPoint x="-900" y="280" as="targetPoint" />
            <Array as="points">
              <mxPoint x="-130" y="920" />
              <mxPoint x="-910" y="920" />
            </Array>
          </mxGeometry>
        </mxCell>
        <mxCell id="xVn4Jh1f6LnYu56NWIbm-53" value="" style="ellipse;whiteSpace=wrap;html=1;align=center;aspect=fixed;fillColor=none;strokeColor=none;resizable=0;perimeter=centerPerimeter;rotatable=0;allowArrows=0;points=[];outlineConnect=1;" vertex="1" parent="1">
          <mxGeometry x="-715" y="340" width="10" height="10" as="geometry" />
        </mxCell>
        <mxCell id="xVn4Jh1f6LnYu56NWIbm-54" value="" style="rounded=0;orthogonalLoop=1;jettySize=auto;html=1;endArrow=halfCircle;endFill=0;endSize=6;strokeWidth=1;sketch=0;exitX=1;exitY=1;exitDx=0;exitDy=0;" edge="1" parent="1" source="xVn4Jh1f6LnYu56NWIbm-27">
          <mxGeometry relative="1" as="geometry">
            <mxPoint x="-220" y="495" as="sourcePoint" />
            <mxPoint x="-260" y="500" as="targetPoint" />
          </mxGeometry>
        </mxCell>
        <mxCell id="xVn4Jh1f6LnYu56NWIbm-55" value="" style="rounded=0;orthogonalLoop=1;jettySize=auto;html=1;endArrow=oval;endFill=0;sketch=0;sourcePerimeterSpacing=0;targetPerimeterSpacing=0;endSize=10;exitX=0.175;exitY=0.011;exitDx=0;exitDy=0;exitPerimeter=0;" edge="1" parent="1" source="xVn4Jh1f6LnYu56NWIbm-39">
          <mxGeometry relative="1" as="geometry">
            <mxPoint x="-260" y="495" as="sourcePoint" />
            <mxPoint x="-260" y="500" as="targetPoint" />
          </mxGeometry>
        </mxCell>
        <mxCell id="xVn4Jh1f6LnYu56NWIbm-56" value="" style="ellipse;whiteSpace=wrap;html=1;align=center;aspect=fixed;fillColor=none;strokeColor=none;resizable=0;perimeter=centerPerimeter;rotatable=0;allowArrows=0;points=[];outlineConnect=1;" vertex="1" parent="1">
          <mxGeometry x="-245" y="490" width="10" height="10" as="geometry" />
        </mxCell>
        <mxCell id="xVn4Jh1f6LnYu56NWIbm-61" value="" style="rounded=0;orthogonalLoop=1;jettySize=auto;html=1;endArrow=halfCircle;endFill=0;endSize=6;strokeWidth=1;sketch=0;exitX=0.605;exitY=0.999;exitDx=0;exitDy=0;exitPerimeter=0;" edge="1" parent="1" source="xVn4Jh1f6LnYu56NWIbm-23">
          <mxGeometry relative="1" as="geometry">
            <mxPoint x="-400" y="515" as="sourcePoint" />
            <mxPoint x="-460" y="515" as="targetPoint" />
          </mxGeometry>
        </mxCell>
        <mxCell id="xVn4Jh1f6LnYu56NWIbm-62" value="" style="rounded=0;orthogonalLoop=1;jettySize=auto;html=1;endArrow=oval;endFill=0;sketch=0;sourcePerimeterSpacing=0;targetPerimeterSpacing=0;endSize=10;exitX=0.178;exitY=0.005;exitDx=0;exitDy=0;exitPerimeter=0;" edge="1" parent="1" source="xVn4Jh1f6LnYu56NWIbm-19">
          <mxGeometry relative="1" as="geometry">
            <mxPoint x="-440" y="515" as="sourcePoint" />
            <mxPoint x="-460" y="515" as="targetPoint" />
          </mxGeometry>
        </mxCell>
        <mxCell id="xVn4Jh1f6LnYu56NWIbm-64" value="" style="rounded=0;orthogonalLoop=1;jettySize=auto;html=1;endArrow=halfCircle;endFill=0;endSize=6;strokeWidth=1;sketch=0;exitX=0.958;exitY=0.006;exitDx=0;exitDy=0;exitPerimeter=0;" edge="1" target="xVn4Jh1f6LnYu56NWIbm-66" parent="1" source="xVn4Jh1f6LnYu56NWIbm-11">
          <mxGeometry relative="1" as="geometry">
            <mxPoint x="200" y="445" as="sourcePoint" />
          </mxGeometry>
        </mxCell>
        <mxCell id="xVn4Jh1f6LnYu56NWIbm-65" value="" style="rounded=0;orthogonalLoop=1;jettySize=auto;html=1;endArrow=oval;endFill=0;sketch=0;sourcePerimeterSpacing=0;targetPerimeterSpacing=0;endSize=10;exitX=0.25;exitY=1;exitDx=0;exitDy=0;" edge="1" target="xVn4Jh1f6LnYu56NWIbm-66" parent="1" source="xVn4Jh1f6LnYu56NWIbm-1">
          <mxGeometry relative="1" as="geometry">
            <mxPoint x="160" y="445" as="sourcePoint" />
          </mxGeometry>
        </mxCell>
        <mxCell id="xVn4Jh1f6LnYu56NWIbm-66" value="" style="ellipse;whiteSpace=wrap;html=1;align=center;aspect=fixed;fillColor=none;strokeColor=none;resizable=0;perimeter=centerPerimeter;rotatable=0;allowArrows=0;points=[];outlineConnect=1;" vertex="1" parent="1">
          <mxGeometry x="175" y="440" width="10" height="10" as="geometry" />
        </mxCell>
        <mxCell id="xVn4Jh1f6LnYu56NWIbm-67" value="" style="rounded=0;orthogonalLoop=1;jettySize=auto;html=1;endArrow=halfCircle;endFill=0;endSize=6;strokeWidth=1;sketch=0;exitX=1;exitY=0.5;exitDx=0;exitDy=0;" edge="1" target="xVn4Jh1f6LnYu56NWIbm-69" parent="1" source="xVn4Jh1f6LnYu56NWIbm-23">
          <mxGeometry relative="1" as="geometry">
            <mxPoint x="-170" y="150" as="sourcePoint" />
          </mxGeometry>
        </mxCell>
        <mxCell id="xVn4Jh1f6LnYu56NWIbm-68" value="" style="rounded=0;orthogonalLoop=1;jettySize=auto;html=1;endArrow=oval;endFill=0;sketch=0;sourcePerimeterSpacing=0;targetPerimeterSpacing=0;endSize=10;" edge="1" target="xVn4Jh1f6LnYu56NWIbm-69" parent="1">
          <mxGeometry relative="1" as="geometry">
            <mxPoint x="20" y="217" as="sourcePoint" />
          </mxGeometry>
        </mxCell>
        <mxCell id="xVn4Jh1f6LnYu56NWIbm-69" value="" style="ellipse;whiteSpace=wrap;html=1;align=center;aspect=fixed;fillColor=none;strokeColor=none;resizable=0;perimeter=centerPerimeter;rotatable=0;allowArrows=0;points=[];outlineConnect=1;" vertex="1" parent="1">
          <mxGeometry x="-115" y="212" width="10" height="10" as="geometry" />
        </mxCell>
      </root>
    </mxGraphModel>
  </diagram>
</mxfile>
